<?xml version="1.0" encoding="UTF-8"?>
<svg width="28px" height="28px" viewBox="0 0 28 28" version="1.1" xmlns="http://www.w3.org/2000/svg" xmlns:xlink="http://www.w3.org/1999/xlink">
    <title>LOGO1</title>
    <g id="页面-1" stroke="none" stroke-width="1" fill="none" fill-rule="evenodd">
        <g id="1" transform="translate(-28.000000, -19.000000)" fill="#156FD6">
            <g id="LOGO1" transform="translate(28.000000, 19.000000)">
                <path d="M27.2638871,14.7970171 C27.895694,15.5600287 27.7892183,16.6907721 27.0262067,17.322579 C26.033236,18.1447028 25.4448263,20.4601034 24.9354552,22.5836442 L24.8664548,22.8718704 L24.8585108,22.9053123 C24.2721899,25.3564308 22.3733097,27.1902212 19.9025873,27.6910796 C17.6967087,28.1381237 15.4962116,27.4295672 13.9854359,25.8289727 C12.7626955,27.2230223 11.0347402,28 9.20812508,28 C8.79503536,28 8.37720485,27.9602798 7.9587337,27.8791738 C5.58149728,27.4174832 3.71763719,25.7170244 3.03835416,23.412209 L2.97013723,23.1629808 L2.90568806,22.9074905 C2.34934949,20.7044307 1.7188239,18.207698 0.649838942,17.3227071 C-0.113172615,16.6907721 -0.219648283,15.5600287 0.4121586,14.7970171 C1.04396548,14.0340056 2.17458076,13.9275299 2.93784858,14.5592087 C4.83125503,16.1268995 5.59754773,18.9243193 6.2969906,21.6844339 L6.38414948,22.0291623 L6.44821426,22.2831151 C6.72279592,23.3683725 7.54308139,24.1436845 8.64243305,24.3571483 C9.6555375,24.5539073 10.6277631,24.2196919 11.2917927,23.4592329 L11.4204101,23.3014889 L12.333077,21.8329959 C12.6568925,21.3119784 13.1963598,20.9835725 13.7993939,20.9324564 L13.9653196,20.9254542 C14.584527,20.9269811 15.149041,21.2145724 15.5095398,21.7026617 L15.6026873,21.8406837 L16.3988844,23.1369705 C17.0688739,24.006714 18.1069796,24.3941778 19.1898026,24.17482 C20.2279837,23.964386 21.0107923,23.2553516 21.3174266,22.2606138 L21.3692864,22.0708044 L21.3772305,22.0374907 C21.4037089,21.9267818 21.4302219,21.8159278 21.4568391,21.7050111 L21.618351,21.0394207 C22.2465517,18.4901765 23.0036727,15.9951961 24.7381971,14.5593368 C25.5012086,13.9274018 26.6320802,14.0338775 27.2638871,14.7970171 Z M22.2379536,8.76887989 C22.7832731,9.59608436 22.5548181,10.7086334 21.7277417,11.2539528 C20.0419154,12.3656391 18.157191,13.0986153 16.1840972,13.4235045 L15.7599791,13.4868667 L15.7599791,17.204546 C15.7599791,18.195372 14.956863,18.9983599 13.9661652,18.9983599 C13.0250023,18.9983599 12.2531319,18.2736633 12.1782977,17.3516842 L12.1723513,17.204546 L12.1723513,13.5196679 C9.95237847,13.2622556 7.82696525,12.4928376 5.94820145,11.2539528 C5.12112511,10.7086334 4.89267009,9.59608436 5.43811765,8.76887989 C5.98330895,7.94193168 7.09598609,7.71347667 7.92306243,8.25892422 C9.67971876,9.41708736 11.725051,10.0292904 13.8380356,10.0292904 C15.9508922,10.0292904 17.9962244,9.41708736 19.7528807,8.25892422 C20.5800852,7.71347667 21.6925061,7.94193168 22.2379536,8.76887989 Z M13.8379972,0 C15.8193928,0 17.425625,1.60623222 17.425625,3.58762781 C17.425625,5.5690234 15.8193928,7.17525562 13.8379972,7.17525562 C11.8566016,7.17525562 10.2503694,5.5690234 10.2503694,3.58762781 C10.2503694,1.60623222 11.8566016,0 13.8379972,0 Z" id="Fill-6"></path>
            </g>
        </g>
    </g>
</svg>